<svg width="34" height="35" viewBox="0 0 34 35" fill="none" xmlns="http://www.w3.org/2000/svg">
    <path d="M1.09625 15.75H4.5C5.42826 15.75 6.3185 16.1187 6.97487 16.7751C7.63125 17.4315 8 18.3217 8 19.25V21C8 21.9283 8.36875 22.8185 9.02513 23.4749C9.6815 24.1312 10.5717 24.5 11.5 24.5C12.4283 24.5 13.3185 24.8687 13.9749 25.5251C14.6313 26.1815 15 27.0717 15 28V33.1537M9.75 3.38625V6.125C9.75 7.28532 10.2109 8.39812 11.0314 9.21859C11.8519 10.0391 12.9647 10.5 14.125 10.5H15C15.9283 10.5 16.8185 10.8687 17.4749 11.5251C18.1312 12.1815 18.5 13.0717 18.5 14C18.5 14.9283 18.8687 15.8185 19.5251 16.4749C20.1815 17.1312 21.0717 17.5 22 17.5C22.9283 17.5 23.8185 17.1312 24.4749 16.4749C25.1312 15.8185 25.5 14.9283 25.5 14C25.5 13.0717 25.8687 12.1815 26.5251 11.5251C27.1815 10.8687 28.0717 10.5 29 10.5H30.862M22 32.354V28C22 27.0717 22.3687 26.1815 23.0251 25.5251C23.6815 24.8687 24.5717 24.5 25.5 24.5H30.862M32.5 17.5C32.5 19.5683 32.0926 21.6164 31.3011 23.5273C30.5096 25.4381 29.3495 27.1744 27.8869 28.6369C26.4244 30.0995 24.6881 31.2596 22.7773 32.0511C20.8664 32.8426 18.8183 33.25 16.75 33.25C14.6817 33.25 12.6336 32.8426 10.7227 32.0511C8.81186 31.2596 7.07559 30.0995 5.61307 28.6369C4.15054 27.1744 2.99041 25.4381 2.1989 23.5273C1.40739 21.6164 1 19.5683 1 17.5C1 13.3228 2.65937 9.31677 5.61307 6.36307C8.56677 3.40937 12.5728 1.75 16.75 1.75C20.9272 1.75 24.9332 3.40937 27.8869 6.36307C30.8406 9.31677 32.5 13.3228 32.5 17.5Z" stroke="black" stroke-width="2" stroke-linecap="round" stroke-linejoin="round" />
</svg>